<?xml version="1.0" encoding="utf-8"?>
<!-- Generator: Adobe Illustrator 26.0.0, SVG Export Plug-In . SVG Version: 6.00 Build 0)  -->
<svg version="1.1" id="Layer_1" xmlns="http://www.w3.org/2000/svg" xmlns:xlink="http://www.w3.org/1999/xlink" x="0px" y="0px"
	 viewBox="0 0 32 33" style="enable-background:new 0 0 32 33;" xml:space="preserve">
<style type="text/css">
	.st0{fill:url(#SVGID_1_);}
	.st1{fill:url(#SVGID_00000041270551756128196760000009654181547388725410_);}
	.st2{fill-rule:evenodd;clip-rule:evenodd;fill:url(#SVGID_00000124860835364275983780000002048683178504345485_);}
</style>
<linearGradient id="SVGID_1_" gradientUnits="userSpaceOnUse" x1="-4.8158" y1="25.7243" x2="20.9735" y2="14.7254">
	<stop  offset="0.1768" style="stop-color:#5E2B11"/>
	<stop  offset="0.9063" style="stop-color:#F2B879"/>
</linearGradient>
<path class="st0" d="M20.4,21.6l-0.7,0.8c0,0-1.8,1.8-6.5-3.2c-4.8-5-3-6.9-3-6.9l0.5-0.5c1.1-1.2,1.3-3.1,0.3-4.6l-2-2.9
	c-1.2-1.7-3.6-2-5-0.5L1.1,6.5C0.4,7.2-0.1,8.2,0,9.3c0.1,2.7,1.3,8.6,7.8,15.4c6.9,7.2,13.3,7.5,16,7.3c0.8-0.1,1.6-0.5,2.1-1.1
	l2.3-2.4c1.6-1.6,1.1-4.4-0.9-5.6L24.3,21C23,20.3,21.4,20.5,20.4,21.6z"/>
<linearGradient id="SVGID_00000088100524653921039820000014081501838007163300_" gradientUnits="userSpaceOnUse" x1="19.619" y1="11.4526" x2="31.6379" y2="1.8346">
	<stop  offset="0.1768" style="stop-color:#5E2B11"/>
	<stop  offset="0.6873" style="stop-color:#F2B879"/>
</linearGradient>
<path style="fill:url(#SVGID_00000088100524653921039820000014081501838007163300_);" d="M16.6,1c0.1-0.7,0.7-1.1,1.4-1
	c0,0,0.2,0,0.2,0c0.1,0,0.3,0.1,0.6,0.1c0.5,0.1,1.2,0.4,2,0.7c1.6,0.7,3.8,2,6,4.3c2.2,2.2,3.5,4.4,4.3,6c0.4,0.8,0.6,1.5,0.7,2
	c0.1,0.2,0.1,0.4,0.1,0.6c0,0.1,0,0.1,0,0.2l0,0.1c0.1,0.7-0.3,1.3-1,1.4c-0.7,0.1-1.3-0.3-1.4-1c0,0,0-0.1,0-0.1
	c0-0.1-0.1-0.2-0.1-0.4c-0.1-0.4-0.3-0.9-0.6-1.6c-0.6-1.4-1.8-3.3-3.8-5.3c-2-2-3.9-3.1-5.3-3.8c-0.7-0.3-1.2-0.5-1.6-0.6
	c-0.2-0.1-0.4-0.1-0.5-0.1C17,2.3,16.5,1.7,16.6,1z"/>
<linearGradient id="SVGID_00000068637658607052672030000012810649470085558674_" gradientUnits="userSpaceOnUse" x1="17.9135" y1="12.3921" x2="26.0899" y2="7.9425">
	<stop  offset="0" style="stop-color:#5E2B11"/>
	<stop  offset="0.7362" style="stop-color:#F2B879"/>
</linearGradient>
<path style="fill-rule:evenodd;clip-rule:evenodd;fill:url(#SVGID_00000068637658607052672030000012810649470085558674_);" d="
	M17,6.6c0.2-0.6,0.9-1,1.5-0.8l-0.3,1.2c0.3-1.2,0.3-1.2,0.3-1.2l0,0l0,0l0,0l0,0l0,0c0,0,0.1,0,0.1,0c0.1,0,0.2,0.1,0.3,0.1
	c0.2,0.1,0.6,0.3,1,0.5C20.7,6.9,21.8,7.7,23,9c1.3,1.3,2.1,2.4,2.5,3.1c0.2,0.4,0.4,0.7,0.5,1c0.1,0.1,0.1,0.2,0.1,0.3
	c0,0,0,0.1,0,0.1l0,0l0,0l0,0l0,0c0,0,0,0-1.2,0.3l1.2-0.3c0.2,0.6-0.2,1.3-0.8,1.5c-0.6,0.2-1.3-0.2-1.5-0.8l0,0c0,0,0-0.1-0.1-0.1
	c-0.1-0.1-0.2-0.4-0.3-0.7c-0.4-0.6-1-1.5-2.1-2.7c-1.1-1.1-2.1-1.8-2.7-2.1c-0.3-0.2-0.5-0.3-0.7-0.3c-0.1,0-0.1,0-0.1-0.1l0,0
	C17.2,7.9,16.8,7.3,17,6.6z"/>
</svg>
