<?xml version="1.0" encoding="utf-8"?>
<!-- Generator: Adobe Illustrator 26.0.0, SVG Export Plug-In . SVG Version: 6.00 Build 0)  -->
<svg version="1.1" id="Layer_1" xmlns="http://www.w3.org/2000/svg" xmlns:xlink="http://www.w3.org/1999/xlink" x="0px" y="0px"
	 viewBox="0 0 48 48" style="enable-background:new 0 0 48 48;" xml:space="preserve">
<style type="text/css">
	.st0{fill:url(#SVGID_1_);}
	.st1{fill:#35C1F1;}
	.st2{fill:#FFFFFF;}
	.st3{fill:#D6E0E9;}
	.st4{opacity:5.000000e-02;enable-background:new    ;}
	.st5{opacity:7.000000e-02;enable-background:new    ;}
	.st6{fill:#E65100;}
	.st7{fill:#FF6D00;}
	.st8{fill:#EEEEEE;}
</style>
<g>
	
		<linearGradient id="SVGID_1_" gradientUnits="userSpaceOnUse" x1="305.8648" y1="-323.5901" x2="321.27" y2="-365.9147" gradientTransform="matrix(1 0 0 -1 -282 -324)">
		<stop  offset="0" style="stop-color:#2AA4F4"/>
		<stop  offset="1" style="stop-color:#007AD9"/>
	</linearGradient>
	<path class="st0" d="M15,9.2l2.5,28.7c0.1,1.2,0.9,2.2,2.1,2.5l10.3,2.9c0.9,0.2,1.8,0.2,2.7,0l10.3-2.9c1.2-0.3,2-1.3,2.1-2.5
		l2.5-28.7c0.1-1.1-0.8-2.1-1.9-2.1H17C15.8,7.1,14.9,8,15,9.2z"/>
	<path class="st1" d="M31.3,10v30.8l9.5-2.7c0.8-0.2,1.3-0.9,1.4-1.7L44.4,11c0-0.6-0.4-1-1-1H31.3z"/>
	<path class="st2" d="M40,14.8h-8.8v3.9H36l-0.3,3.9h-4.4v3.9h4.2l-0.3,4.3l-4,1.4v4.1l7.6-2.5l0.7-11.1l0,0L40,14.8z"/>
	<path class="st3" d="M31.3,14.8v3.9h-8.6l-0.3-3.9H31.3z M26.8,22.5l0.2,3.9h4.2v-3.9H26.8z M27.2,28.3h-3.9l0.3,5.3l7.6,2.5v-4.1
		l-4-1.4L27.2,28.3z"/>
	<path class="st4" d="M40,14.8l-0.5,7.7l-0.7,11.1l-7.6,2.5l-7.6-2.5l-0.3-5.3h3.9l0.1,2.4l4,1.4l4-1.4l0.3-4.3h-4.2H27l-0.2-3.9
		h4.4h4.4l0.3-3.9h-4.7h-8.6l-0.3-3.9h8.9H40 M41.1,13.8h-1h-8.8h-8.9h-1l0.1,1l0.3,3.9l0.1,0.9h0.9h8.6H35l-0.1,1.9h-3.5h-4.4h-1
		l0.1,1l0.2,3.9l0,0.9h-2.7h-1l0.1,1l0.3,5.3l0,0.7l0.6,0.2L31,37l0.3,0.1l0.3-0.1l7.6-2.5l0.6-0.2l0-0.7l0.7-11.1l0.5-7.7
		L41.1,13.8L41.1,13.8z M28.1,27.3h3.1h3.2L34.3,30l-3,1l-3-1l-0.1-1.8L28.1,27.3L28.1,27.3z"/>
	<path class="st5" d="M40,14.8l-0.5,7.7l-0.7,11.1l-7.6,2.5l-7.6-2.5l-0.3-5.3h3.9l0.1,2.4l4,1.4l4-1.4l0.3-4.3h-4.2H27l-0.2-3.9
		h4.4h4.4l0.3-3.9h-4.7h-8.6l-0.3-3.9h8.9H40 M40.6,14.3H40h-8.8h-8.9h-0.5l0,0.5l0.3,3.9l0,0.4h0.4h8.6h4.2L35.3,22h-4h-4.4h-0.5
		l0,0.5l0.2,3.9l0,0.5H27h4.2H35l-0.2,3.5l-3.5,1.2l-3.5-1.2l-0.1-2.1l0-0.5h-0.5h-3.9h-0.5l0,0.5l0.3,5.3l0,0.3l0.3,0.1l7.6,2.5
		l0.2,0l0.2,0l7.6-2.5l0.3-0.1l0-0.3L40,22.5l0.5-7.7L40.6,14.3L40.6,14.3z"/>
</g>
<g>
	<path class="st6" d="M35.3,4.3h-34l3,34l14,4l14-4L35.3,4.3L35.3,4.3z"/>
	<path class="st7" d="M18.3,7.3v31.9L29.5,36L32,7.3H18.3z"/>
	<path class="st2" d="M18.3,24.3v-4h8.6l-0.7,11.5l-7.9,2.6v-4.2l4.1-1.4l0.3-4.5C22.7,24.3,18.3,24.3,18.3,24.3z M27.2,16.3l0.3-4
		h-9.2v4H27.2z"/>
	<path class="st8" d="M18.3,30.2v4.2l-7.9-2.6L10,26.3h4l0.2,2.5L18.3,30.2z M13.4,16.3h4.9v-4H9.2l0.7,12h8.4v-4h-4.6L13.4,16.3z"
		/>
</g>
</svg>
