<?xml version="1.0" encoding="utf-8"?>
<!-- Generator: Adobe Illustrator 26.0.0, SVG Export Plug-In . SVG Version: 6.00 Build 0)  -->
<svg version="1.1" id="Layer_1" xmlns="http://www.w3.org/2000/svg" xmlns:xlink="http://www.w3.org/1999/xlink" x="0px" y="0px"
	 viewBox="0 0 24 24" style="enable-background:new 0 0 24 24;" xml:space="preserve">
<style type="text/css">
	.st0{fill:url(#SVGID_1_);}
</style>
<linearGradient id="SVGID_1_" gradientUnits="userSpaceOnUse" x1="4.2039" y1="18.9931" x2="17.6031" y2="6.974">
	<stop  offset="0" style="stop-color:#6D3F08"/>
	<stop  offset="0.8252" style="stop-color:#EFA66A"/>
</linearGradient>
<path class="st0" d="M11.9,3C3.6,3,3,3.6,3,11.9v0.2c0,8.3,0.6,8.9,8.9,8.9h0.2c8.3,0,8.9-0.6,8.9-8.9V12C21,3.6,20.4,3,11.9,3
	L11.9,3z M17.4,5.7c0.5,0,0.9,0.4,0.9,0.9s-0.4,0.9-0.9,0.9s-0.9-0.4-0.9-0.9C16.5,6.2,16.9,5.7,17.4,5.7z M12,7.5
	c2.5,0,4.5,2,4.5,4.5s-2,4.5-4.5,4.5s-4.5-2-4.6-4.5C7.4,9.5,9.5,7.5,12,7.5z M12,9.3c-1.5,0-2.7,1.3-2.7,2.7s1.3,2.7,2.7,2.7
	s2.7-1.3,2.7-2.7C14.7,10.5,13.5,9.3,12,9.3z"/>
</svg>
