<?xml version="1.0" encoding="utf-8"?>
<!-- Generator: Adobe Illustrator 26.0.0, SVG Export Plug-In . SVG Version: 6.00 Build 0)  -->
<svg version="1.1" id="Layer_1" xmlns="http://www.w3.org/2000/svg" xmlns:xlink="http://www.w3.org/1999/xlink" x="0px" y="0px"
	 viewBox="0 0 3496.3 1975.7" style="enable-background:new 0 0 3496.3 1975.7;" xml:space="preserve">
<style type="text/css">
	.st0{display:none;fill:url(#SVGID_1_);}
</style>
<rect x="-2.3" width="3498.6" height="1975.7"/>
<linearGradient id="SVGID_1_" gradientUnits="userSpaceOnUse" x1="1892.3481" y1="-1721.4716" x2="4034.7866" y2="187.2949" gradientTransform="matrix(1 0 0 1 0 1184)">
	<stop  offset="0" style="stop-color:#703603"/>
	<stop  offset="0.9866" style="stop-color:#FCB160"/>
</linearGradient>
<path class="st0" d="M3496.3,0v1693.4c-20.6-5.2-41.3-10.3-61.9-15.5c-36.9-15.8-53-36-60.9-49.7c-35.2-61.1-14-122.5-44.2-202.3
	c-8.2-21.6-33.9-61.5-59-83.5c-129.4-113.4-237.1,10.9-366.5-102.5s-10.1-242.2-139.5-355.6s-248.7,15.4-378.1-97.9
	c-129.4-113.4-26.6-251.4-156-364.8s-232.2,24.7-361.6-88.7c-25.1-22-39.7-43.7-47.8-65.2c-28.2-74.6,15.9-128.9-13.2-202.3
	c-9.2-23.2-24.5-45.2-47.9-65.3h1736.6L3496.3,0L3496.3,0z"/>
</svg>
