<?xml version="1.0" encoding="utf-8"?>
<!-- Generator: Adobe Illustrator 26.0.0, SVG Export Plug-In . SVG Version: 6.00 Build 0)  -->
<svg version="1.1" id="Layer_1" xmlns="http://www.w3.org/2000/svg" xmlns:xlink="http://www.w3.org/1999/xlink" x="0px" y="0px"
	 viewBox="0 0 24 24" style="enable-background:new 0 0 24 24;" xml:space="preserve">
<style type="text/css">
	.st0{fill:url(#SVGID_1_);}
</style>
<linearGradient id="SVGID_1_" gradientUnits="userSpaceOnUse" x1="2.4502" y1="16.1643" x2="18.9498" y2="8.9695">
	<stop  offset="0" style="stop-color:#7C440D"/>
	<stop  offset="1" style="stop-color:#DBA349"/>
</linearGradient>
<path class="st0" d="M18,3H6C4.3,3,3,4.3,3,6v12c0,1.7,1.3,3,3,3h12c1.7,0,3-1.3,3-3V6C21,4.3,19.7,3,18,3z M9.2,16H7.1v-6h2.2V16z
	 M8.1,8.9C7.4,8.9,7,8.4,7,7.8c0-0.6,0.4-1,1.2-1c0.7,0,1.1,0.4,1.1,1C9.3,8.4,8.9,8.9,8.1,8.9z M17,16h-2.1v-3.3
	c0-0.9-0.6-1.1-0.8-1.1c-0.2,0-0.9,0.1-0.9,1.1c0,0.1,0,3.3,0,3.3H11v-6h2.2v0.8c0.3-0.5,0.8-0.8,1.9-0.8s1.9,0.8,1.9,2.7V16z"/>
</svg>
