<?xml version="1.0" encoding="utf-8"?>
<!-- Generator: Adobe Illustrator 26.0.0, SVG Export Plug-In . SVG Version: 6.00 Build 0)  -->
<svg version="1.1" id="Layer_1" xmlns="http://www.w3.org/2000/svg" xmlns:xlink="http://www.w3.org/1999/xlink" x="0px" y="0px"
	 viewBox="0 0 27 37" style="enable-background:new 0 0 27 37;" xml:space="preserve">
<style type="text/css">
	.st0{fill:url(#SVGID_1_);}
</style>
<linearGradient id="SVGID_1_" gradientUnits="userSpaceOnUse" x1="25.215" y1="8.5132" x2="-4.9609" y2="30.3013">
	<stop  offset="0.2909" style="stop-color:#EFA262"/>
	<stop  offset="1" style="stop-color:#5B2E09"/>
</linearGradient>
<path class="st0" d="M13.5,0C6.1,0,0,6.1,0,13.5c0,13.1,12.7,23,12.7,23c0.4,0.4,1.1,0.4,1.5,0c0,0,12.7-10,12.7-23
	C27,6.1,20.9,0,13.5,0z M13.5,7.4c3.4,0,6.1,2.8,6.1,6.1c0,3.4-2.8,6.1-6.1,6.1s-6.1-2.8-6.1-6.1C7.4,10.1,10.1,7.4,13.5,7.4z"/>
</svg>
