<?xml version="1.0" encoding="utf-8"?>
<!-- Generator: Adobe Illustrator 26.0.0, SVG Export Plug-In . SVG Version: 6.00 Build 0)  -->
<svg version="1.1" id="Layer_1" xmlns="http://www.w3.org/2000/svg" xmlns:xlink="http://www.w3.org/1999/xlink" x="0px" y="0px"
	 viewBox="0 0 38 28" style="enable-background:new 0 0 38 28;" xml:space="preserve">
<style type="text/css">
	.st0{fill:url(#SVGID_1_);}
</style>
<linearGradient id="SVGID_1_" gradientUnits="userSpaceOnUse" x1="35.4451" y1="3.3118" x2="4.3027" y2="23.5521">
	<stop  offset="0" style="stop-color:#F7AC74"/>
	<stop  offset="1" style="stop-color:#562C09"/>
</linearGradient>
<path class="st0" d="M32.4,0.4H5.6c-2.8,0-5.2,2.3-5.2,5.2v17c0,2.8,2.3,5.2,5.2,5.2h26.8c2.8,0,5.2-2.3,5.2-5.2v-17
	C37.6,2.7,35.3,0.4,32.4,0.4z M13.4,18.8l-7.2,6.2c-0.5,0.4-1.3,0.4-1.7-0.1C4,24.3,4,23.5,4.6,23.1l7.2-6.2
	c0.5-0.4,1.3-0.4,1.7,0.1C13.9,17.6,13.9,18.3,13.4,18.8z M19,16.4c-1,0-1.9-0.3-2.6-1l0,0l0,0c0,0,0,0,0,0L5.3,5.9
	C4.8,5.4,4.7,4.6,5.2,4.1C5.6,3.6,6.4,3.6,6.9,4L18,13.6c0.2,0.2,0.6,0.4,1,0.4c0.4,0,0.8-0.1,1-0.4l0,0L31.1,4
	c0.5-0.4,1.3-0.4,1.7,0.1c0.4,0.5,0.4,1.3-0.1,1.7l-11.1,9.6C20.9,16.1,20,16.4,19,16.4z M33.6,24.8c-0.4,0.5-1.2,0.6-1.7,0.1
	l-7.2-6.2c-0.5-0.4-0.6-1.2-0.1-1.7c0.4-0.5,1.2-0.6,1.7-0.1l7.2,6.2C34,23.5,34,24.3,33.6,24.8z"/>
</svg>
