<?xml version="1.0" encoding="utf-8"?>
<!-- Generator: Adobe Illustrator 26.0.0, SVG Export Plug-In . SVG Version: 6.00 Build 0)  -->
<svg version="1.1" id="Layer_1" xmlns="http://www.w3.org/2000/svg" xmlns:xlink="http://www.w3.org/1999/xlink" x="0px" y="0px"
	 viewBox="0 0 24.7 25" style="enable-background:new 0 0 24.7 25;" xml:space="preserve">
<style type="text/css">
	.st0{fill:url(#SVGID_1_);}
</style>
<linearGradient id="SVGID_1_" gradientUnits="userSpaceOnUse" x1="1.3935" y1="16.7979" x2="18.3466" y2="10.4572">
	<stop  offset="4.751380e-02" style="stop-color:#77460B"/>
	<stop  offset="1" style="stop-color:#F9A35D"/>
</linearGradient>
<path class="st0" d="M16.1,3.7c4.9,0,5.3,0.4,5.3,5.3v7.4c0,4.9-0.4,5.3-5.3,5.3H8.6c-4.9,0-5.3-0.4-5.3-5.3V9
	c0-4.9,0.4-5.3,5.3-5.3C8.6,3.7,16.1,3.7,16.1,3.7z M9.8,16.1c1.9,0,3.4-1.5,3.4-3.4s-1.5-3.4-3.4-3.4s-3.4,1.5-3.4,3.4
	S7.9,16.1,9.8,16.1z M15,15.9c0.9,0,1.6-1.4,1.6-3.2S16,9.5,15,9.5c-0.9,0-1.6,1.4-1.6,3.2S14.2,15.9,15,15.9z M17.6,15.5
	c0.3,0,0.5-1.2,0.5-2.8s-0.2-2.8-0.5-2.8s-0.5,1.2-0.5,2.8S17.3,15.5,17.6,15.5z"/>
</svg>
