<?xml version="1.0" encoding="utf-8"?>
<!-- Generator: Adobe Illustrator 26.0.0, SVG Export Plug-In . SVG Version: 6.00 Build 0)  -->
<svg version="1.1" id="Layer_1" xmlns="http://www.w3.org/2000/svg" xmlns:xlink="http://www.w3.org/1999/xlink" x="0px" y="0px"
	 viewBox="0 0 25.2 24.1" style="enable-background:new 0 0 25.2 24.1;" xml:space="preserve">
<style type="text/css">
	.st0{display:none;fill:#F90808;}
	.st1{fill:url(#SVGID_1_);}
	.st2{fill:url(#SVGID_00000101792930711141018250000009900028498547256230_);}
	.st3{fill:url(#SVGID_00000010280958782991618040000010137387246753026710_);}
</style>
<rect class="st0" width="36" height="29"/>
<linearGradient id="SVGID_1_" gradientUnits="userSpaceOnUse" x1="1.0286" y1="4.6265" x2="24.5372" y2="-0.1746">
	<stop  offset="0" style="stop-color:#91652A"/>
	<stop  offset="0.7202" style="stop-color:#F9B458"/>
</linearGradient>
<path class="st1" d="M1.9,0.7h21.3c0.7,0,1.3,0.7,1.3,1.6l0,0c0,0.9-0.6,1.6-1.3,1.6H1.9c-0.7,0-1.3-0.7-1.3-1.6l0,0
	C0.6,1.4,1.2,0.7,1.9,0.7z"/>
<linearGradient id="SVGID_00000091016954462072101910000000121036635552323243_" gradientUnits="userSpaceOnUse" x1="9.5444" y1="13.6178" x2="24.2616" y2="10.6122">
	<stop  offset="0" style="stop-color:#91652A"/>
	<stop  offset="0.7202" style="stop-color:#F9B458"/>
</linearGradient>
<path style="fill:url(#SVGID_00000091016954462072101910000000121036635552323243_);" d="M10.6,10.5h12.6c0.7,0,1.3,0.7,1.3,1.6l0,0
	c0,0.9-0.6,1.6-1.3,1.6H10.6c-0.7,0-1.3-0.7-1.3-1.6l0,0C9.3,11.2,9.9,10.5,10.6,10.5z"/>
<linearGradient id="SVGID_00000108308578983945823630000007126324327003108749_" gradientUnits="userSpaceOnUse" x1="4.2069" y1="23.9924" x2="24.1538" y2="19.9187">
	<stop  offset="0" style="stop-color:#91652A"/>
	<stop  offset="0.7202" style="stop-color:#F9B458"/>
</linearGradient>
<path style="fill:url(#SVGID_00000108308578983945823630000007126324327003108749_);" d="M5.2,20.4h18c0.7,0,1.3,0.7,1.3,1.6l0,0
	c0,0.9-0.6,1.6-1.3,1.6h-18c-0.7,0-1.3-0.7-1.3-1.6l0,0C3.8,21.1,4.4,20.4,5.2,20.4z"/>
</svg>
