<?xml version="1.0" encoding="utf-8"?>
<!-- Generator: Adobe Illustrator 26.0.0, SVG Export Plug-In . SVG Version: 6.00 Build 0)  -->
<svg version="1.1" id="Layer_1" xmlns="http://www.w3.org/2000/svg" xmlns:xlink="http://www.w3.org/1999/xlink" x="0px" y="0px"
	 viewBox="0 0 174.72 68.16" style="enable-background:new 0 0 174.72 68.16;" xml:space="preserve">
<style type="text/css">
	.st0{display:none;fill:#69BD45;}
	.st1{fill:#FDFEFE;}
	.st2{fill:#FFFFFF;}
</style>
<rect class="st0" width="174.72" height="68.16"/>
<g>
	<path class="st1" d="M61.44,9.95c-1.85,0.36-4.16,2.8-6.92,7.32c-1.42,2.33-2.58,4.59-3.49,6.79c-0.95,2.28-2.41,6.32-4.38,12.11
		c-2.95,3.84-5.52,6.63-7.7,8.37c-2.19,1.74-4.51,2.84-6.97,3.32c-2.4,0.46-4.4,0.16-6.15-0.63c-0.16,0.27-0.37,0.5-0.6,0.69
		c1.95,0.82,4.17,0.99,6.66,0.51c4.9-0.94,9.67-4.54,14.31-10.78c-1.71,4.36-3.22,7.54-4.51,9.53c-1.29,1.99-2.9,3.61-4.82,4.86
		c-7.34-0.56-12.78-0.51-16.29,0.17c-4.54,0.87-6.64,2.2-6.29,3.99c0.37,1.91,3.52,2.29,9.46,1.15c3.35-0.64,6.54-1.6,9.57-2.86
		c5.23,0.7,8.38,0.67,10.88,0.73c2.5,0.05,5.95-0.53,8.3-0.93c3.81-0.66,6.34-1.02,8.04-1.51c-0.06-0.05-1.96-0.03-2.02-0.07
		c-0.17-0.12-0.13-0.08-0.32-0.19c-0.08,0.03-0.3-0.12-0.41-0.11c-1.36,0.26-4.54,0.62-6.09,0.78c-4.3,0.43-6.29-0.42-14.22-1.08
		c4.06-1.97,7.1-4.45,9.14-7.44c2.03-2.99,3.71-7.43,5.03-13.32c2.66-3,5.25-6.83,7.78-11.47c2.53-4.65,3.66-7.67,3.39-9.08
		C62.68,10.09,62.22,9.8,61.44,9.95z M23.93,56.76c-5.8,1.12-8.86,0.9-9.16-0.65c-0.22-1.15,0.91-1.97,3.38-2.44
		c2.38-0.46,7.1-0.22,14.17,0.7C29.86,55.36,27.07,56.15,23.93,56.76z M59.31,19.02c-2.25,4.19-4.73,7.98-7.44,11.36
		c1.51-6.51,3.1-11.31,4.76-14.41c1.86-3.47,3.49-5.34,4.89-5.6c0.45-0.09,0.72,0.09,0.81,0.52C62.57,12.12,61.56,14.83,59.31,19.02
		z"/>
	<path class="st1" d="M74.21,38.88c0.06,0.31-0.74,1.94-2.4,4.9c-1.33,2.42-2.5,3.73-3.5,3.93c-0.68,0.13-1.28-0.02-1.8-0.44
		c-0.52-0.42-0.86-1.02-1.01-1.78c-0.15-0.79-0.08-1.7,0.21-2.71c-1.07,2.34-1.93,3.95-2.57,4.81c-0.64,0.87-1.33,1.38-2.06,1.52
		c-0.78,0.15-1.5-0.06-2.15-0.63c-0.66-0.57-1.08-1.36-1.28-2.37c-0.54-2.82,0.97-5.7,4.53-8.64c1.56-1.31,2.88-2.06,3.95-2.27
		c0.91-0.18,1.45,0.18,1.62,1.06c0.05,0.25,0.05,0.59,0.01,1.03l0.71-2.35c0.46,0.02,0.86-0.01,1.2-0.07
		c0.4-0.08,0.9-0.23,1.51-0.45l-2.66,7.21c-0.92,2.52-1.31,4.14-1.17,4.86c0.13,0.69,0.49,0.98,1.06,0.87
		c0.59-0.11,1.4-0.97,2.44-2.56s2.03-3.51,2.99-5.74c0.06-0.16,0.13-0.25,0.2-0.27C74.14,38.76,74.2,38.79,74.21,38.88z M67.44,36.4
		c-0.14-0.72-0.54-1.02-1.2-0.89c-1.35,0.26-2.87,1.92-4.56,4.99s-2.38,5.42-2.06,7.05c0.18,0.96,0.7,1.35,1.55,1.19
		c1.01-0.2,2.45-2.22,4.3-6.06C66.98,39.52,67.64,37.43,67.44,36.4z"/>
	<path class="st2" d="M80.05,28.89c0.11,0.59-0.58,1.93-2.08,4.02c0,0.47,0.03,0.88,0.1,1.22c0.16,0.85,0.81,2.13,1.95,3.83
		c0.57,0.85,0.92,1.59,1.04,2.22c0.25,1.32-0.17,2.59-1.27,3.81c-1.1,1.22-2.53,2-4.29,2.33c-1,0.19-1.85,0.06-2.55-0.39
		c-0.7-0.45-1.15-1.15-1.33-2.11c-0.21-1.1-0.03-2.25,0.56-3.45c0.59-1.19,1.3-1.87,2.13-2.03c0.15-0.03,0.28-0.02,0.41,0.01
		l1.35-2.5c0.41-0.73,0.94-1.74,1.61-3.03c0.05-1.08,0.26-2.03,0.64-2.87s0.81-1.3,1.31-1.39C79.86,28.53,80,28.63,80.05,28.89z
		 M78.66,38.17c-0.08-0.44-0.18-0.88-0.3-1.3c-0.11-0.43-0.25-1.05-0.4-1.85c-0.13-0.66-0.2-1.22-0.23-1.67
		c-0.62,1.2-1.53,2.9-2.72,5.1c0.32,0.18,0.52,0.44,0.58,0.78c0.17,0.87-0.43,1.59-1.8,2.17c-0.55,0.24-0.98,0.65-1.31,1.22
		c-0.32,0.57-0.43,1.13-0.33,1.67c0.11,0.59,0.42,1.04,0.92,1.35c0.5,0.31,1.07,0.41,1.7,0.29c1.23-0.24,2.27-1.18,3.1-2.83
		S78.98,39.82,78.66,38.17z"/>
	<path class="st2" d="M98.55,34.2c0.06,0.31-0.74,1.94-2.4,4.9c-1.33,2.42-2.5,3.73-3.5,3.93c-0.68,0.13-1.28-0.02-1.8-0.44
		c-0.52-0.42-0.86-1.02-1.01-1.78c-0.15-0.79-0.08-1.7,0.21-2.71c-1.07,2.34-1.93,3.95-2.57,4.81s-1.33,1.38-2.06,1.52
		c-0.78,0.15-1.5-0.06-2.15-0.63c-0.66-0.57-1.08-1.36-1.28-2.37c-0.54-2.82,0.97-5.7,4.53-8.64c1.56-1.31,2.88-2.06,3.95-2.27
		c0.91-0.18,1.45,0.18,1.62,1.06c0.05,0.25,0.05,0.59,0.01,1.03l0.71-2.35c0.46,0.02,0.86-0.01,1.2-0.07
		c0.4-0.08,0.9-0.23,1.51-0.45l-2.66,7.21c-0.92,2.52-1.31,4.14-1.17,4.86c0.13,0.69,0.49,0.98,1.06,0.87
		c0.59-0.11,1.4-0.97,2.44-2.56s2.03-3.51,2.99-5.74c0.06-0.16,0.13-0.25,0.2-0.27C98.48,34.08,98.53,34.11,98.55,34.2z
		 M91.78,31.72c-0.14-0.72-0.54-1.02-1.2-0.89c-1.35,0.26-2.87,1.92-4.56,4.99c-1.69,3.07-2.38,5.42-2.06,7.05
		c0.18,0.96,0.7,1.35,1.55,1.19c1.01-0.2,2.45-2.22,4.3-6.06C91.32,34.84,91.97,32.75,91.78,31.72z"/>
	<path class="st2" d="M116.25,30.79c0.06,0.31-0.73,1.94-2.38,4.9c-1.35,2.43-2.52,3.74-3.52,3.93c-0.66,0.13-1.27-0.02-1.82-0.45
		c-0.55-0.43-0.89-1.02-1.04-1.77c-0.13-0.66-0.11-1.3,0.05-1.92c0.16-0.62,0.66-1.88,1.48-3.77c0.85-1.99,1.23-3.23,1.14-3.72
		c-0.12-0.6-0.49-0.84-1.12-0.72c-2.15,0.41-4.69,5.03-7.62,13.86c-0.73,0.08-1.17,0.13-1.32,0.16c-0.51,0.1-0.99,0.22-1.44,0.37
		l2.39-6.11c1.36-3.49,1.96-5.63,1.81-6.41c-0.08-0.44-0.31-0.63-0.68-0.55c-0.75,0.14-1.93,2.01-3.53,5.6
		c-0.1,0.22-0.18,0.34-0.25,0.37c-0.07,0.01-0.13-0.02-0.16-0.11c0-0.08,0.02-0.14,0.05-0.19l0.31-0.63c1.67-3.45,2.9-5.25,3.68-5.4
		c0.5-0.1,0.97,0.05,1.41,0.44c0.44,0.39,0.72,0.9,0.84,1.53c0.18,0.94-0.12,2.35-0.9,4.24c1.27-2.73,2.29-4.62,3.06-5.69
		c0.76-1.06,1.54-1.67,2.34-1.82c0.65-0.12,1.24,0.04,1.78,0.48c0.54,0.44,0.89,1.06,1.04,1.83c0.19,0.98-0.2,2.62-1.16,4.91
		c-0.98,2.34-1.42,3.79-1.31,4.37c0.12,0.6,0.48,0.85,1.08,0.73c1.31-0.25,3.12-3.02,5.43-8.3c0.05-0.16,0.1-0.25,0.18-0.26
		C116.18,30.67,116.23,30.71,116.25,30.79z"/>
	<path class="st2" d="M122.53,16.49l2.77-8.15c-0.45,0.21-0.88,0.31-1.3,0.31c-0.4,0-0.83-0.1-1.28-0.31l-2.63,7.57"/>
	<path class="st2" d="M120.08,15.91l-3.96,11.58c-0.8,2.34-1.19,4.29-1.19,5.85c0,1.33,0.23,2.43,0.7,3.32
		c0.47,0.88,1.06,1.33,1.76,1.33c1.42,0,3.55-3.4,6.37-10.19l0.97-2.3c0.14-0.34,0.21-0.55,0.22-0.62c0-0.16-0.04-0.23-0.13-0.23
		c-0.07,0-0.16,0.13-0.27,0.39c-3.25,8.25-5.55,12.38-6.91,12.38c-0.71,0-1.06-0.59-1.06-1.76c0-1.07,0.31-2.5,0.92-4.29l5.02-14.86
		"/>
	<path d="M119.9,16.49"/>
	<path class="st2" d="M137.78,26.61c0.02,0.12-0.03,0.26-0.14,0.44l-0.7,1.49c-2.03,4.37-3.72,6.69-5.07,6.95
		c-0.71,0.14-1.33-0.01-1.88-0.43c-0.55-0.42-0.89-1.01-1.04-1.78c-0.2-1.03,0.1-2.48,0.9-4.36c1.25-2.91,1.83-4.6,1.74-5.09
		c-0.11-0.57-0.47-0.8-1.07-0.69c-0.88,0.17-1.92,1.27-3.11,3.3c-1.15,1.94-2.57,5.48-4.25,10.6c-0.46,0-0.84,0.02-1.15,0.08
		c-0.32,0.06-0.75,0.19-1.28,0.38l2.11-6.49c0.28-0.92,0.72-2.29,1.32-4.09c0.33-0.89,1.34-3.7,3.02-8.44l2.26-6.33
		c0.46,0,0.84-0.02,1.15-0.08c0.59-0.11,1.13-0.29,1.63-0.54c-1.06,2.75-2.63,6.86-4.71,12.34c-0.06,0.16-0.83,2.28-2.32,6.34
		c1.97-4.63,3.76-7.1,5.36-7.41c0.63-0.12,1.22,0.05,1.78,0.5c0.55,0.46,0.9,1.08,1.05,1.85c0.2,1.01-0.17,2.6-1.1,4.76
		c-1.03,2.41-1.49,3.88-1.39,4.43c0.12,0.63,0.5,0.89,1.13,0.77c1.15-0.22,2.69-2.44,4.62-6.66l0.5-1.08l0.3-0.56
		c0.05-0.16,0.12-0.25,0.22-0.27C137.73,26.52,137.77,26.55,137.78,26.61z"/>
	<path class="st2" d="M153.33,23.66c0.06,0.31-0.74,1.94-2.4,4.9c-1.33,2.42-2.5,3.73-3.5,3.93c-0.68,0.13-1.28-0.02-1.8-0.44
		c-0.52-0.42-0.86-1.02-1.01-1.78c-0.15-0.79-0.08-1.7,0.21-2.71c-1.07,2.34-1.93,3.95-2.57,4.81c-0.64,0.87-1.33,1.38-2.06,1.52
		c-0.78,0.15-1.5-0.06-2.15-0.63s-1.08-1.36-1.28-2.37c-0.54-2.82,0.97-5.7,4.53-8.64c1.56-1.31,2.88-2.06,3.95-2.27
		c0.91-0.18,1.45,0.18,1.62,1.06c0.05,0.25,0.05,0.59,0.01,1.03l0.71-2.35c0.46,0.02,0.86-0.01,1.2-0.07
		c0.4-0.08,0.9-0.23,1.51-0.45l-2.66,7.21c-0.92,2.52-1.31,4.14-1.17,4.86c0.13,0.69,0.49,0.98,1.06,0.87
		c0.59-0.11,1.4-0.97,2.44-2.56s2.03-3.51,2.99-5.74c0.06-0.16,0.13-0.25,0.2-0.27C153.26,23.54,153.31,23.57,153.33,23.66z
		 M146.55,21.18c-0.14-0.72-0.54-1.02-1.2-0.89c-1.35,0.26-2.87,1.92-4.56,4.99c-1.69,3.07-2.38,5.42-2.06,7.05
		c0.18,0.96,0.7,1.35,1.55,1.19c1.01-0.2,2.45-2.22,4.3-6.06C146.09,24.3,146.75,22.21,146.55,21.18z"/>
	<rect x="84.56" y="20.76" transform="matrix(0.982 -0.1889 0.1889 0.982 -1.9044 21.94)" class="st2" width="59.13" height="0.4"/>
	
		<ellipse transform="matrix(0.982 -0.1889 0.1889 0.982 -3.4043 30.7931)" class="st2" cx="159.82" cy="33.25" rx="0.67" ry="0.59"/>
	
		<rect x="56.97" y="42.84" transform="matrix(0.982 -0.1889 0.1889 0.982 -6.2392 21.1049)" class="st2" width="101.23" height="0.88"/>
</g>
</svg>
