<?xml version="1.0" encoding="utf-8"?>
<!-- Generator: Adobe Illustrator 26.0.0, SVG Export Plug-In . SVG Version: 6.00 Build 0)  -->
<svg version="1.1" id="Layer_1" xmlns="http://www.w3.org/2000/svg" xmlns:xlink="http://www.w3.org/1999/xlink" x="0px" y="0px"
	 viewBox="0 0 28 27.9" style="enable-background:new 0 0 28 27.9;" xml:space="preserve">
<style type="text/css">
	.st0{fill:url(#SVGID_1_);}
</style>
<linearGradient id="SVGID_1_" gradientUnits="userSpaceOnUse" x1="2.327" y1="21.7739" x2="25.1306" y2="6.8499">
	<stop  offset="7.457826e-02" style="stop-color:#754515"/>
	<stop  offset="1" style="stop-color:#F4A467"/>
</linearGradient>
<path class="st0" d="M14.3,2.2C7.9,2.2,2.6,7.4,2.6,13.9c0,2.2,0.6,4.3,1.7,6l-1.6,5.7l5.8-1.5c1.7,1,3.7,1.5,5.8,1.5
	c6.5,0,11.7-5.3,11.7-11.8S20.8,2.2,14.3,2.2z M10.3,8.4c0.2,0,0.4,0,0.6,0c0.2,0,0.4,0,0.7,0.5c0.3,0.6,0.8,2,0.9,2.2
	c0.1,0.1,0.1,0.3,0,0.5c-0.1,0.2-0.1,0.3-0.3,0.5c-0.1,0.2-0.3,0.4-0.4,0.5c-0.1,0.1-0.3,0.3-0.1,0.6s0.8,1.2,1.6,2
	c1.1,1,2,1.3,2.3,1.4c0.3,0.1,0.5,0.1,0.6-0.1c0.2-0.2,0.7-0.8,0.9-1.1c0.2-0.3,0.4-0.2,0.6-0.1c0.3,0.1,1.7,0.8,2,0.9
	c0.3,0.1,0.5,0.2,0.6,0.3c0.1,0.1,0.1,0.7-0.2,1.4c-0.2,0.7-1.4,1.3-2,1.4c-0.5,0-1,0.2-3.5-0.7c-3-1.2-4.8-4.2-5-4.4
	c-0.1-0.2-1.2-1.6-1.2-3c0-1.4,0.7-2.1,1-2.4C9.8,8.5,10.1,8.4,10.3,8.4z"/>
</svg>
