<?xml version="1.0" encoding="utf-8"?>
<!-- Generator: Adobe Illustrator 26.0.0, SVG Export Plug-In . SVG Version: 6.00 Build 0)  -->
<svg version="1.1" id="Layer_1" xmlns="http://www.w3.org/2000/svg" xmlns:xlink="http://www.w3.org/1999/xlink" x="0px" y="0px"
	 viewBox="0 0 24 24" style="enable-background:new 0 0 24 24;" xml:space="preserve">
<style type="text/css">
	.st0{fill:url(#SVGID_1_);}
</style>
<linearGradient id="SVGID_1_" gradientUnits="userSpaceOnUse" x1="3.7998" y1="15.3701" x2="19.9494" y2="8.7329">
	<stop  offset="0" style="stop-color:#543204"/>
	<stop  offset="1" style="stop-color:#D6A85F"/>
</linearGradient>
<path class="st0" d="M18.1,3c-0.2,0-0.4,0.1-0.6,0.3l-4.7,5.6L9.1,3.8C8.7,3.3,8.1,3,7.5,3H4.1C3.4,3,3,3.7,3.4,4.3l6.1,8.5l-5.9,7
	c-0.3,0.3-0.2,0.8,0.1,1.1c0.3,0.3,0.8,0.2,1.1-0.1c0,0,0,0,0,0l5.6-6.7l4.5,6.2c0.3,0.5,0.9,0.8,1.5,0.8h3.5c0.7,0,1-0.7,0.7-1.3
	l-6.9-9.6l5-5.9c0.3-0.3,0.2-0.8-0.1-1.1C18.4,3.1,18.2,3,18.1,3z M5.4,4.5h2.1c0.1,0,0.2,0.1,0.3,0.1l10.7,14.9h-2.1
	c-0.1,0-0.2-0.1-0.3-0.1l-4.8-6.7c0-0.3-0.2-0.6-0.5-0.7L5.4,4.5z"/>
</svg>
