<?xml version="1.0" encoding="utf-8"?>
<!-- Generator: Adobe Illustrator 26.0.0, SVG Export Plug-In . SVG Version: 6.00 Build 0)  -->
<svg version="1.1" id="Layer_1" xmlns="http://www.w3.org/2000/svg" xmlns:xlink="http://www.w3.org/1999/xlink" x="0px" y="0px"
	 viewBox="0 0 419 280" style="enable-background:new 0 0 419 280;" xml:space="preserve">
<style type="text/css">
	.st0{fill:none;}
	.st1{fill:url(#SVGID_1_);}
</style>
<path class="st0" d="M407.1,275.1H11.9c-6.6,0-11.9-5.3-11.9-11.9v-247C0,9.7,5.3,4.4,11.9,4.4h395.3c6.6,0,11.9,5.3,11.9,11.9v247
	C419,269.8,413.7,275.1,407.1,275.1z"/>
<linearGradient id="SVGID_1_" gradientUnits="userSpaceOnUse" x1="-39.06" y1="217.0601" x2="450.1778" y2="65.3836">
	<stop  offset="0" style="stop-color:#63461B"/>
	<stop  offset="1" style="stop-color:#F6C24D"/>
</linearGradient>
<path class="st1" d="M401.7,280H17.3C7.7,280,0,272.3,0,262.7V17.3C0,7.7,7.7,0,17.3,0h384.5c9.5,0,17.3,7.7,17.3,17.3v245.5
	C419,272.3,411.3,280,401.7,280z"/>
<g>
	<g>
		<path d="M85.1,177.3c0-5,0.1-10.7,0.1-14h-0.1c-1,6-3,15.8-5,25.1h-3.8c-1.5-8.1-3.6-19.3-4.5-25.1h-0.1c0.2,3.5,0.3,9.5,0.3,14.6
			v10.6h-4v-29.5h6.6c1.6,7.7,3.4,17.4,4,21.8h0c0.5-3.9,2.7-14.2,4.4-21.8h6.3v29.5h-4.3V177.3z"/>
		<path d="M96.5,166.2c1.6,7.6,3,14.5,3.2,16.5h0c0.3-2.2,1.2-7.2,3.1-16.5h4.2l-5.1,22.8c-1.5,6.4-2.7,8.3-6.4,8.3
			c-0.4,0-1.3,0-2-0.2v-4.9c0.3,0,0.8,0.1,1.1,0.1c1.6,0,2.3-0.8,2.9-3.2l-5.6-22.8H96.5z"/>
		<path d="M116.8,158.9h8.4c4.3,0,7.3,3.5,7.3,9.1c0,6.4-3.4,9.3-7.4,9.3h-3.9v11h-4.4V158.9z M121.2,172.3h3.4c2,0,3.5-1.1,3.5-4.1
			c0-3-1.5-4.2-3.4-4.2h-3.5V172.3z"/>
		<path d="M149.8,177.2c0,6.7-2.8,11.6-7.6,11.6c-4.8,0-7.5-4.9-7.5-11.5c0-6.8,2.9-11.7,7.7-11.7
			C146.9,165.7,149.8,170.3,149.8,177.2z M139,177.3c0,4.3,1.3,6.8,3.3,6.8c2.1,0,3.2-2.5,3.2-6.7c0-4.6-1.2-6.8-3.3-6.8
			C140.2,170.5,139,172.6,139,177.3z"/>
		<path d="M152.7,172.2c0-2.2,0-4.2,0-6h4.2c0.1,0.5,0.1,2.7,0.1,3.9c0.7-2.5,2.3-4.4,4.9-4.4v5.8c-3.1-0.1-4.9,1.1-4.9,7.2v9.7
			h-4.2V172.2z"/>
		<path d="M162.9,166.2h2.4v-6h4.2v6h3v4.6h-3v10.9c0,1.7,0.4,2.3,1.6,2.3c0.2,0,0.6,0,1-0.1v4.2c-0.8,0.4-2,0.4-2.9,0.4
			c-3,0-4-2.3-4-6.2v-11.6h-2.4V166.2z"/>
		<path d="M175.7,188.4v-17.5h-2.2v-4.6h2.2v-1.9c0-4.6,1.6-7.6,4.9-7.6c0.7,0,1.6,0.1,2,0.3v4.8c-0.2-0.1-0.6-0.1-0.9-0.1
			c-1.3,0-1.7,0.7-1.7,3v1.5h2.7v4.6h-2.7v17.5H175.7z"/>
		<path d="M199.1,177.2c0,6.7-2.8,11.6-7.6,11.6c-4.8,0-7.5-4.9-7.5-11.5c0-6.8,2.9-11.7,7.7-11.7
			C196.2,165.7,199.1,170.3,199.1,177.2z M188.3,177.3c0,4.3,1.3,6.8,3.3,6.8c2.1,0,3.2-2.5,3.2-6.7c0-4.6-1.2-6.8-3.3-6.8
			C189.6,170.5,188.3,172.6,188.3,177.3z"/>
		<path d="M202,188.4v-31.2h4.2v31.2H202z"/>
		<path d="M210.1,157.1h4.2v5.5h-4.2V157.1z M210.1,166.2h4.2v22.1h-4.2V166.2z"/>
		<path d="M232.4,177.2c0,6.7-2.8,11.6-7.6,11.6c-4.8,0-7.5-4.9-7.5-11.5c0-6.8,2.9-11.7,7.7-11.7
			C229.5,165.7,232.4,170.3,232.4,177.2z M221.5,177.3c0,4.3,1.3,6.8,3.3,6.8c2.1,0,3.2-2.5,3.2-6.7c0-4.6-1.2-6.8-3.3-6.8
			C222.8,170.5,221.5,172.6,221.5,177.3z"/>
		<path d="M246.3,188.4l-5.2-29.5h4.7c1.9,13.5,2.8,19.6,3,22.8h0c0.8-5.4,2.7-15.7,3.9-22.8h4c1,5.7,3.1,17.1,3.8,22.5h0
			c0.7-6.5,2.7-17.9,3.4-22.5h4.3l-5.5,29.5h-4.6c-1.1-6.5-2.9-16.1-3.6-21.1h0c-0.7,5.2-2.6,15.2-3.7,21.1H246.3z"/>
		<path d="M274,178.6c0,2.8,1,5.5,3.1,5.5c1.8,0,2.3-1,2.7-2.4h4.2c-0.5,2.7-2.2,7.2-7,7.2c-5,0-7.2-5.5-7.2-11.3
			c0-6.9,2.5-11.9,7.4-11.9c5.3,0,7.1,5.5,7.1,11c0,0.8,0,1.2-0.1,1.9H274z M279.9,174.8c0-2.6-0.7-4.7-2.8-4.7c-2,0-2.9,2-3,4.7
			H279.9z"/>
		<path d="M287,157.1h4.2v11.4c0.6-1.4,1.9-2.9,4.4-2.9c4.2,0,6.3,5,6.3,11.2c0,6.3-2.3,12-6.7,12c-2.3,0-3.3-1-4-2.6
			c0,0.7-0.1,1.5-0.2,2.1H287c0-2.4,0-4.8,0-7.2V157.1z M297.6,177c0-3.7-0.9-6.4-3.2-6.4c-2.4,0-3.3,2.3-3.3,6.8
			c0,3.7,0.8,6.6,3.2,6.6C296.5,184,297.6,181.2,297.6,177z"/>
		<path d="M308,181.7c0.3,1.8,1.3,2.8,2.9,2.8c1.6,0,2.1-0.8,2.1-2.2c0-1.4-0.7-2-2.9-2.8c-5-1.8-5.8-4-5.8-7.1
			c0-3.3,1.6-6.7,6.2-6.7c4.6,0,6.2,3.7,6.4,6.7h-4c-0.1-0.8-0.5-2.4-2.5-2.4c-1.4,0-1.9,0.9-1.9,1.9c0,1.1,0.5,1.6,3,2.5
			c5.1,1.7,5.8,4.2,5.8,7.5c0,3.7-1.9,7-6.6,7c-4.7,0-6.6-3.2-6.9-7.2H308z"/>
		<path d="M320.1,157.1h4.2v5.5h-4.2V157.1z M320.1,166.2h4.2v22.1h-4.2V166.2z"/>
		<path d="M326.7,166.2h2.4v-6h4.2v6h3v4.6h-3v10.9c0,1.7,0.4,2.3,1.6,2.3c0.2,0,0.6,0,1-0.1v4.2c-0.8,0.4-2,0.4-2.9,0.4
			c-3,0-4-2.3-4-6.2v-11.6h-2.4V166.2z"/>
		<path d="M342.3,178.6c0,2.8,1,5.5,3.1,5.5c1.8,0,2.3-1,2.7-2.4h4.2c-0.5,2.7-2.2,7.2-7,7.2c-5,0-7.2-5.5-7.2-11.3
			c0-6.9,2.5-11.9,7.4-11.9c5.3,0,7.1,5.5,7.1,11c0,0.8,0,1.2-0.1,1.9H342.3z M348.2,174.8c0-2.6-0.7-4.7-2.8-4.7c-2,0-2.9,2-3,4.7
			H348.2z"/>
	</g>
</g>
<path d="M246.2,145h-73.4c0-17.7,16.4-32.1,36.7-32.1S246.2,127.3,246.2,145z"/>
<circle cx="209.5" cy="93.4" r="15.6"/>
</svg>
