<?xml version="1.0" encoding="utf-8"?>
<!-- Generator: Adobe Illustrator 26.0.0, SVG Export Plug-In . SVG Version: 6.00 Build 0)  -->
<svg version="1.1" id="Layer_1" xmlns="http://www.w3.org/2000/svg" xmlns:xlink="http://www.w3.org/1999/xlink" x="0px" y="0px"
	 viewBox="0 0 167.8 57.6" style="enable-background:new 0 0 167.8 57.6;" xml:space="preserve">
<style type="text/css">
	.st0{display:none;fill:#69BD45;}
	.st1{fill:#FDFEFE;}
	.st2{fill:#FFFFFF;}
</style>
<rect class="st0" width="167.8" height="57.6"/>
<g>
	<path class="st1" d="M52,48.7c-1.4,0-4.6-0.2-6.1-0.4c-4.3-0.4-7.3-1.1-15-3.3c4.4-1.2,9-3.5,11.6-6c2.6-2.5,5-6.6,7.5-12.1
		c3.2-2.5,6.5-5.7,9.8-9.8s5-6.8,5-8.3c0-0.7-0.4-1.1-1.2-1.1c-1.9,0-4.6,2-8.2,5.9c-1.8,2-3.4,4-4.7,6c-1.4,2.1-3.6,5.8-6.6,11.1
		c-3.6,3.2-6.7,5.5-9.1,6.8c-2.5,1.3-5,1.9-7.5,1.9c-2.5,0-4.3-0.7-5.9-1.8c-0.2,0.2-0.5,0.4-0.7,0.6c1.8,1.2,3.9,1.8,6.4,1.8
		c5,0,10.4-2.6,16.1-7.9c-2.5,4-4.6,6.8-6.2,8.5c-1.7,1.7-4.8,3.5-6.9,4.3c-7.1-1.9-11.2-3.4-14.8-3.4c-4.6,0-6.9,0.9-6.9,2.7
		c0,1.9,3,2.9,9.1,2.9c3.4,0,6.7-0.3,9.9-1c5,1.7,8,2.1,10.5,2.6c2.5,0.5,6,0.8,8.4,0.8c3.9,0.1,6.1,0.1,7.9,0 M17.9,46.5
		c-5.9,0-8.9-0.8-8.9-2.4c0-1.2,1.3-1.8,3.8-1.8c2.4,0,7,1.1,13.8,3.4C24,46.3,21.1,46.5,17.9,46.5z M59.8,16.2
		c-3,3.7-6.2,6.9-9.5,9.8c2.7-6.1,5.2-10.5,7.4-13.2c2.5-3.1,4.4-4.6,5.9-4.6c0.5,0,0.7,0.2,0.7,0.7C64.3,10,62.8,12.5,59.8,16.2z"
		/>
	<path class="st1" d="M70.7,38.5c0,0.3-1.1,1.8-3.3,4.4C65.6,45,64.3,46,63.2,46c-0.7,0-1.2-0.3-1.7-0.8s-0.7-1.2-0.7-1.9
		c0-0.8,0.2-1.7,0.7-2.6c-1.5,2.1-2.6,3.5-3.4,4.2c-0.8,0.7-1.6,1.1-2.3,1.1c-0.8,0-1.5-0.3-2-1s-0.8-1.5-0.8-2.6
		c0-2.9,2-5.4,6.1-7.6c1.8-1,3.2-1.5,4.3-1.5c0.9,0,1.4,0.5,1.4,1.3c0,0.2-0.1,0.6-0.2,1l1.1-2.2c0.4,0.1,0.8,0.2,1.2,0.2
		c0.4,0,0.9,0,1.6-0.2l-4,6.6c-1.4,2.3-2.1,3.8-2.1,4.6c0,0.7,0.3,1.1,0.9,1.1c0.6,0,1.6-0.7,2.9-2.1c1.3-1.4,2.7-3.1,4-5.1
		c0.1-0.2,0.2-0.2,0.2-0.2C70.6,38.3,70.7,38.4,70.7,38.5z M64.5,34.8c0-0.7-0.3-1.1-1-1.1c-1.4,0-3.2,1.3-5.4,4
		c-2.2,2.7-3.4,4.9-3.4,6.5c0,1,0.4,1.5,1.3,1.5c1,0,2.8-1.7,5.4-5.1C63.5,37.7,64.5,35.8,64.5,34.8z"/>
	<path class="st2" d="M78.3,29.8c0,0.6-0.9,1.8-2.8,3.6c-0.1,0.5-0.1,0.9-0.1,1.2c0,0.9,0.4,2.2,1.2,4.1c0.4,0.9,0.6,1.7,0.6,2.4
		c0,1.3-0.7,2.5-2,3.5S72.4,46,70.6,46c-1,0-1.8-0.3-2.4-0.9c-0.6-0.6-0.9-1.3-0.9-2.3c0-1.1,0.4-2.2,1.2-3.3
		c0.8-1.1,1.6-1.6,2.5-1.6c0.2,0,0.3,0,0.4,0.1l1.8-2.2c0.5-0.6,1.3-1.5,2.2-2.7c0.2-1,0.6-2,1.2-2.7s1-1.1,1.6-1.1
		C78.2,29.4,78.3,29.5,78.3,29.8z M75.2,38.6c0-0.5,0-0.9,0-1.3s0-1.1,0-1.9c0-0.7,0-1.2,0.1-1.7c-0.8,1.1-2.1,2.6-3.6,4.5
		c0.3,0.2,0.4,0.5,0.4,0.9c0,0.9-0.7,1.5-2.2,1.8c-0.6,0.1-1.1,0.5-1.5,1s-0.6,1-0.6,1.6c0,0.6,0.2,1.1,0.7,1.5s1,0.6,1.6,0.6
		c1.3,0,2.4-0.7,3.6-2.2C74.6,41.9,75.2,40.3,75.2,38.6z"/>
	<path class="st2" d="M95.5,38.5c0,0.3-1.1,1.8-3.3,4.4C90.4,45,89,46,88,46c-0.7,0-1.2-0.3-1.7-0.8c-0.4-0.5-0.7-1.2-0.7-1.9
		c0-0.8,0.2-1.7,0.7-2.6c-1.5,2.1-2.6,3.5-3.4,4.2c-0.8,0.7-1.6,1.1-2.3,1.1c-0.8,0-1.5-0.3-2-1s-0.8-1.5-0.8-2.6
		c0-2.9,2-5.4,6.1-7.6c1.8-1,3.2-1.5,4.3-1.5c0.9,0,1.4,0.5,1.4,1.3c0,0.2-0.1,0.6-0.2,1l1.1-2.2c0.4,0.1,0.8,0.2,1.2,0.2
		c0.4,0,0.9,0,1.6-0.2l-4,6.6c-1.4,2.3-2.1,3.8-2.1,4.6c0,0.7,0.3,1.1,0.9,1.1c0.6,0,1.6-0.7,2.9-2.1c1.3-1.4,2.7-3.1,4-5.1
		c0.1-0.2,0.2-0.2,0.2-0.2C95.4,38.3,95.5,38.4,95.5,38.5z M89.3,34.8c0-0.7-0.3-1.1-1-1.1c-1.4,0-3.2,1.3-5.4,4
		c-2.2,2.7-3.4,4.9-3.4,6.5c0,1,0.4,1.5,1.3,1.5c1,0,2.8-1.7,5.4-5.1C88.2,37.7,89.3,35.8,89.3,34.8z"/>
	<path class="st2" d="M113.5,38.5c0,0.3-1.1,1.8-3.3,4.4c-1.8,2.1-3.2,3.2-4.2,3.2c-0.7,0-1.2-0.3-1.7-0.8c-0.5-0.5-0.7-1.2-0.7-1.9
		c0-0.7,0.1-1.3,0.4-1.9c0.3-0.6,1-1.7,2.2-3.4c1.2-1.8,1.8-2.9,1.8-3.4c0-0.6-0.3-0.9-1-0.9c-2.2,0-5.6,4.1-10.1,12.2
		c-0.7-0.1-1.2-0.1-1.3-0.1c-0.5,0-1,0-1.5,0.1l3.5-5.5c2-3.2,3-5.2,3-6c0-0.5-0.2-0.7-0.6-0.7c-0.8,0-2.3,1.6-4.5,4.8
		c-0.1,0.2-0.2,0.3-0.3,0.3c-0.1,0-0.1,0-0.1-0.1c0-0.1,0-0.1,0.1-0.2l0.4-0.6c2.3-3.1,3.8-4.6,4.6-4.6c0.5,0,0.9,0.2,1.3,0.7
		c0.4,0.5,0.5,1,0.5,1.7c0,1-0.6,2.3-1.7,4c1.8-2.4,3.1-4.1,4.1-5s1.8-1.3,2.6-1.3c0.7,0,1.2,0.3,1.7,0.8s0.7,1.2,0.7,2
		c0,1-0.7,2.5-2.1,4.6c-1.4,2.1-2.1,3.5-2.1,4c0,0.6,0.3,0.9,0.9,0.9c1.3,0,3.6-2.4,6.9-7.1c0.1-0.2,0.2-0.2,0.2-0.2
		C113.5,38.3,113.5,38.4,113.5,38.5z"/>
	<path class="st2" d="M122.4,25.6l4.3-7.5c-0.5,0.1-0.9,0.1-1.3,0.1c-0.4-0.1-0.8-0.3-1.2-0.5l-4,6.9"/>
	<path class="st2" d="M120.1,24.6L114,35.2c-1.2,2.2-2,4-2.3,5.5c-0.2,1.3-0.2,2.4,0.1,3.4s0.8,1.5,1.5,1.6c1.4,0.3,4.1-2.7,8.2-8.8
		l1.4-2.1c0.2-0.3,0.3-0.5,0.3-0.6c0-0.2,0-0.2-0.1-0.3c-0.1,0-0.2,0.1-0.3,0.3c-4.8,7.5-7.8,11.1-9.1,10.9
		c-0.7-0.1-0.9-0.8-0.7-1.9c0.2-1,0.8-2.4,1.7-4l7.7-13.6"/>
	<path d="M119.8,25.1"/>
	<path class="st2" d="M135.4,38.4c0,0.1-0.1,0.2-0.2,0.4l-1,1.3c-2.8,3.9-4.9,5.9-6.3,5.9c-0.7,0-1.3-0.3-1.8-0.8
		c-0.5-0.5-0.7-1.2-0.7-1.9c0-1,0.6-2.4,1.7-4.1c1.8-2.6,2.7-4.2,2.7-4.7c0-0.6-0.3-0.9-0.9-0.9c-0.9,0-2.1,0.9-3.7,2.7
		c-1.5,1.7-3.6,4.9-6.2,9.6c-0.4-0.1-0.8-0.1-1.1-0.1c-0.3,0-0.8,0-1.3,0.1l3.3-6c0.4-0.8,1.1-2.1,2.1-3.8c0.5-0.8,2-3.4,4.6-7.7
		l3.4-5.8c0.4,0.1,0.8,0.1,1.1,0.1c0.6,0,1.2-0.1,1.7-0.2c-1.6,2.5-3.9,6.2-7,11.2c-0.1,0.2-1.2,2.1-3.5,5.8c2.8-4.2,5-6.3,6.7-6.3
		c0.6,0,1.2,0.3,1.6,0.8c0.5,0.5,0.7,1.2,0.7,2c0,1-0.7,2.5-2,4.5c-1.5,2.2-2.2,3.5-2.2,4.1c0,0.6,0.3,1,1,1c1.2,0,3.1-1.9,5.8-5.7
		l0.7-1l0.4-0.5C135.2,38.4,135.2,38.3,135.4,38.4C135.4,38.3,135.4,38.4,135.4,38.4z"/>
	<path class="st2" d="M151.3,38.5c0,0.3-1.1,1.8-3.3,4.4c-1.8,2.1-3.2,3.2-4.2,3.2c-0.7,0-1.2-0.3-1.7-0.8s-0.6-1.2-0.6-1.9
		c0-0.8,0.2-1.7,0.7-2.6c-1.5,2.1-2.6,3.5-3.4,4.2s-1.6,1.1-2.3,1.1c-0.8,0-1.5-0.3-2-1s-0.8-1.5-0.8-2.6c0-2.9,2-5.4,6.1-7.6
		c1.8-1,3.2-1.5,4.3-1.5c0.9,0,1.4,0.5,1.4,1.3c0,0.2-0.1,0.6-0.2,1l1.1-2.2c0.4,0.1,0.9,0.2,1.2,0.2c0.4,0,0.9,0,1.6-0.2l-4,6.6
		c-1.4,2.3-2.1,3.8-2.1,4.6c0,0.7,0.3,1.1,0.9,1.1c0.6,0,1.6-0.7,2.9-2.1c1.3-1.4,2.7-3.1,4-5.1c0.1-0.2,0.2-0.2,0.2-0.2
		C151.2,38.3,151.3,38.4,151.3,38.5z M145.1,34.8c0-0.7-0.3-1.1-1-1.1c-1.4,0-3.2,1.3-5.4,4s-3.4,4.9-3.4,6.5c0,1,0.4,1.5,1.3,1.5
		c1,0,2.8-1.7,5.4-5.1C144,37.7,145.1,35.8,145.1,34.8z"/>
	<rect x="83.7" y="28.2" class="st2" width="59.1" height="0.4"/>
	<ellipse class="st2" cx="155.8" cy="49.1" rx="0.7" ry="0.6"/>
	<polyline class="st2" points="52,48.7 153.2,48.7 153.2,49.5 52,49.6 	"/>
</g>
</svg>
